<?xml version="1.0" encoding="UTF-8" standalone="no"?>
<!-- Created with Inkscape (http://www.inkscape.org/) -->

<svg
   xmlns:dc="http://purl.org/dc/elements/1.1/"
   xmlns:cc="http://creativecommons.org/ns#"
   xmlns:rdf="http://www.w3.org/1999/02/22-rdf-syntax-ns#"
   xmlns:svg="http://www.w3.org/2000/svg"
   xmlns="http://www.w3.org/2000/svg"
   xmlns:sodipodi="http://sodipodi.sourceforge.net/DTD/sodipodi-0.dtd"
   xmlns:inkscape="http://www.inkscape.org/namespaces/inkscape"
   width="104"
   height="85"
   id="svg2"
   sodipodi:version="0.32"
   inkscape:version="0.47 r22583"
   version="1.0"
   sodipodi:docname="logo.simple.svg"
   inkscape:output_extension="org.inkscape.output.svg.inkscape">
  <defs
     id="defs4">
    <inkscape:perspective
       sodipodi:type="inkscape:persp3d"
       inkscape:vp_x="0 : 495 : 1"
       inkscape:vp_y="0 : 1000 : 0"
       inkscape:vp_z="765 : 495 : 1"
       inkscape:persp3d-origin="382.5 : 330 : 1"
       id="perspective11" />
    <inkscape:perspective
       id="perspective2456"
       inkscape:persp3d-origin="100 : 66.666667 : 1"
       inkscape:vp_z="200 : 100 : 1"
       inkscape:vp_y="0 : 1000 : 0"
       inkscape:vp_x="0 : 100 : 1"
       sodipodi:type="inkscape:persp3d" />
    <inkscape:perspective
       id="perspective2514"
       inkscape:persp3d-origin="372.04724 : 350.78739 : 1"
       inkscape:vp_z="744.09448 : 526.18109 : 1"
       inkscape:vp_y="0 : 1000 : 0"
       inkscape:vp_x="0 : 526.18109 : 1"
       sodipodi:type="inkscape:persp3d" />
  </defs>
  <sodipodi:namedview
     inkscape:document-units="in"
     pagecolor="#ffffff"
     bordercolor="#666666"
     borderopacity="1.0"
     inkscape:pageopacity="0.0"
     inkscape:pageshadow="2"
     inkscape:zoom="2.6997085"
     inkscape:cx="74.822896"
     inkscape:cy="36.943845"
     inkscape:current-layer="layer1"
     id="namedview6"
     showgrid="false"
     inkscape:window-width="1022"
     inkscape:window-height="598"
     inkscape:window-x="53"
     inkscape:window-y="196"
     inkscape:window-maximized="0" />
  <metadata
     id="metadata8">
    <rdf:RDF>
      <cc:Work
         rdf:about="">
        <dc:format>image/svg+xml</dc:format>
        <dc:type
           rdf:resource="http://purl.org/dc/dcmitype/StillImage" />
      </cc:Work>
    </rdf:RDF>
  </metadata>
  <g
     inkscape:label="Layer 1"
     inkscape:groupmode="layer"
     id="layer1"
     transform="translate(-50.000004,-73.33332)">
    <path
       sodipodi:type="arc"
       style="fill:#ffffff;fill-opacity:1;stroke:#ffffff;stroke-width:0.89999998;stroke-linejoin:round;stroke-miterlimit:4;stroke-opacity:1;stroke-dasharray:none;stroke-dashoffset:0"
       id="path2823"
       sodipodi:cx="57.969223"
       sodipodi:cy="66.664688"
       sodipodi:rx="54.265118"
       sodipodi:ry="54.265118"
       d="m 112.23434,66.664688 c 0,29.969797 -24.29532,54.265122 -54.265117,54.265122 -29.969797,0 -54.2651176,-24.295325 -54.2651176,-54.265122 0,-29.969797 24.2953206,-54.265118 54.2651176,-54.265118 29.969797,0 54.265117,24.295321 54.265117,54.265118 z"
       transform="matrix(0.94245671,0,0,0.94245671,43.667818,67.538756)" />
    <path
       sodipodi:type="arc"
       style="fill:#f69143;fill-opacity:1;stroke:none"
       id="path2468"
       sodipodi:cx="81.225822"
       sodipodi:cy="92.488266"
       sodipodi:rx="28.865374"
       sodipodi:ry="28.865374"
       d="m 110.0912,92.488266 a 28.865374,28.865374 0 1 1 -57.730751,0 28.865374,28.865374 0 1 1 57.730751,0 z"
       transform="matrix(0.44677531,0,0,0.44677531,27.140595,51.35318)" />
    <path
       id="path1308"
       d="m 111.18653,181.29565 c 18.95185,-5.03978 32.9761,-18.05865 38.80299,-36.02126 2.8042,-8.64451 2.79262,-21.27627 -0.027,-29.51326 C 143.64535,97.307236 130.69153,85.220338 112.0461,80.382251 108.14359,79.369644 103.49296,77.775096 101.71138,76.83884 98.433384,75.116176 95.001401,74.731426 91.387616,75.681435 l -1.982008,0.521054 1.982008,1.622081 c 2.455236,2.009358 1.365103,2.182729 -1.628638,0.259011 -2.116552,-1.360043 -2.304996,-1.322455 -4.380349,0.873652 -1.192746,1.262164 -2.799115,2.294834 -3.569683,2.294834 -0.770579,0 -4.167163,1.366101 -7.547961,3.035777 -4.053078,2.001684 -6.265996,2.685449 -6.496487,2.007319 -0.483976,-1.423892 -8.692414,5.430801 -8.692414,7.258834 0,0.796502 -1.551127,3.36696 -3.446954,5.71212 -7.525494,9.309183 -10.717938,18.801113 -10.853454,32.270113 -0.101013,10.03852 1.516083,16.20402 6.578351,25.08149 6.360061,11.1533 20.311293,21.28335 33.966448,24.66322 6.499484,1.60873 19.847305,1.61632 25.870065,0.0147 z m -23.876955,-2.7422 C 64.540448,173.50824 47.491096,153.44413 47.491096,131.6941 c 0,-10.28463 4.460393,-23.44724 10.22043,-30.16051 2.28773,-2.666346 2.337928,-2.678741 4.9482,-1.22224 2.886809,1.61083 3.525446,3.65554 1.141732,3.65554 -1.320947,0 -1.293506,0.17023 0.222711,1.38179 1.705569,1.36287 1.704871,1.3748 -0.05244,0.87151 -1.781678,-0.5103 -1.781678,-0.5103 0,0.76671 3.250268,2.32958 9.353876,10.3201 9.353876,12.24565 0,3.26689 9.08474,4.79023 16.300016,2.73319 5.774595,-1.64632 6.470765,-2.38923 5.249591,-5.60212 -0.491247,-1.29238 -1.192777,-3.13607 -1.558999,-4.09708 -0.3662,-0.96102 -0.571601,-2.47826 -0.456428,-3.37167 0.125755,-0.97555 -0.175394,-1.39117 -0.753933,-1.0405 -0.529839,0.32113 -0.963338,1.29883 -0.963338,2.17265 0,2.70781 -2.322736,3.83452 -6.693766,3.24696 -3.215158,-0.43217 -3.996388,-0.27879 -3.996388,0.78472 0,0.72706 0.901989,1.67746 2.00441,2.11202 1.356416,0.53469 1.535669,0.80803 0.5545,0.84549 -1.620165,0.0619 -3.493299,-1.80308 -3.787859,-3.77139 -0.106406,-0.71096 -2.032533,-3.09625 -4.280298,-5.30061 -4.866363,-4.77243 -6.539178,-8.2452 -5.589953,-11.60477 0.375993,-1.330713 0.60003,-3.252607 0.497863,-4.270854 -0.128121,-1.276893 0.727668,-2.375891 2.757973,-3.5418 4.767101,-2.737557 10.515908,-4.755462 10.515908,-3.691273 0,0.521602 -0.83776,1.163217 -1.861689,1.425818 -1.495499,0.383532 -1.750529,0.925926 -1.296591,2.757561 0.310808,1.254059 0.722441,3.262967 0.914776,4.464238 0.192319,1.201261 0.54467,2.970394 0.783017,3.931408 0.238331,0.961019 0.463993,2.238712 0.501474,2.839352 0.03751,0.60064 1.039608,1.09206 2.226934,1.09206 1.187326,0 3.349805,0.98285 4.805527,2.18413 3.880474,3.20215 7.161225,2.85258 12.298269,-1.31049 3.05209,-2.473424 5.14803,-3.494579 7.1726,-3.494579 2.45799,0 2.80791,-0.267442 2.48712,-1.900973 -0.20531,-1.045521 0.0526,-2.404308 0.57327,-3.019497 0.53688,-0.634408 0.62568,-1.607737 0.20516,-2.248837 -0.40779,-0.621702 -0.74296,-2.309771 -0.74483,-3.751279 -0.003,-2.051614 -0.43882,-2.681596 -2.00782,-2.900121 -1.10242,-0.153545 -2.0044,-0.831702 -2.0044,-1.507036 0,-1.826602 4.50735,-0.759729 12.91726,3.057422 12.22479,5.548717 22.058,16.20859 26.41625,28.63703 2.97795,8.49221 2.8707,22.5309 -0.23871,31.24898 -5.64848,15.83708 -18.71987,27.50134 -35.71111,31.86683 -8.089,2.07829 -14.971597,2.18069 -23.251835,0.34592 z m 21.204415,-1.22957 c 22.73182,-5.38323 38.12696,-22.94295 38.01229,-43.35692 -0.0636,-11.31735 -2.87701,-18.87698 -9.95433,-26.74701 -4.63773,-5.15715 -9.64283,-8.563907 -16.03155,-10.911928 -2.69481,-0.990419 -5.62503,-2.082232 -6.51162,-2.426233 -1.4121,-0.547938 -1.57777,-0.205224 -1.33625,2.764102 l 0.27569,3.389599 -3.7679,0.26776 c -2.77441,0.19717 -4.47204,0.95833 -6.43849,2.88681 -2.66308,2.61168 -5.371532,9.54857 -5.396537,13.82169 -0.02436,4.1601 -1.983365,6.22631 -8.449902,8.91227 l -6.235905,2.59015 -5.034248,-1.46521 c -9.077145,-2.64189 -16.229335,-0.2096 -21.658023,7.36535 -2.405758,3.3569 -2.70497,4.46902 -2.69961,10.03402 0.0051,5.2855 0.414032,6.98268 2.629934,10.91477 2.89181,5.13143 10.890742,12.86796 16.838959,16.28655 6.98648,4.01531 13.781205,5.8185 23.285659,6.17962 4.899653,0.18615 10.511973,-0.0413 12.471833,-0.50539 z m -20.081217,-2.95446 c -16.572485,-2.89976 -31.079806,-15.50934 -32.632157,-28.36346 -1.111087,-9.20031 5.990003,-17.07772 15.394722,-17.07772 6.496154,0 7.504254,1.22634 3.481584,4.23534 -1.751785,1.31035 -3.874904,3.09121 -4.718018,3.95744 -0.843126,0.86622 -2.391646,1.83332 -3.44117,2.14911 -1.049524,0.31579 -2.122691,1.37848 -2.384825,2.36153 -0.331843,1.24446 -0.118806,1.65273 0.701348,1.34407 0.882742,-0.33219 1.084311,0.36206 0.804341,2.77035 -0.290396,2.49793 0.126206,3.79734 1.87058,5.83458 1.650702,1.9278 2.245366,2.23025 2.248612,1.14361 0.0025,-0.81252 -0.396448,-1.72029 -0.886417,-2.01725 -1.49506,-0.90616 -0.996837,-2.04715 1.022576,-2.34178 2.136061,-0.31166 4.188368,-2.88604 3.128992,-3.92497 -0.376777,-0.36951 -1.04235,-0.10489 -1.479025,0.58804 -0.436686,0.69293 -1.047726,1.01102 -1.357864,0.70687 -0.310143,-0.30415 0.670258,-1.44786 2.178672,-2.54154 1.508415,-1.09368 2.742568,-2.70086 2.742568,-3.57151 0,-1.00057 0.655529,-1.583 1.781689,-1.583 0.979929,0 1.809871,-0.49142 1.844309,-1.09205 0.03445,-0.60064 0.407137,-0.30579 0.828224,0.65523 0.654692,1.49411 0.774689,1.52576 0.828241,0.2184 0.03445,-0.84088 0.506379,-1.52887 1.048762,-1.52887 0.542395,0 0.747425,0.61012 0.455629,1.35584 -0.304219,0.77748 -0.154876,1.12816 0.350108,0.82209 0.484357,-0.29356 0.880649,-1.10027 0.880649,-1.79267 0,-0.6924 0.400874,-1.25891 0.890844,-1.25891 1.137868,0 1.122248,0.5645 -0.07646,2.76104 -0.855263,1.56724 -0.752082,1.70555 0.890845,1.19416 1.677381,-0.52209 1.858152,-0.22991 1.858152,3.00316 0,7.52149 -4.151312,12.59089 -11.154008,13.62072 -7.604757,1.11839 -14.68051,-4.76866 -14.68051,-12.21424 0,-4.55153 1.891228,-7.21765 6.566959,-9.25771 2.875026,-1.25441 3.230607,-1.61812 1.629132,-1.66635 -6.780667,-0.20427 -11.777648,7.41765 -9.983011,15.22709 1.073783,4.67267 6.462721,9.63488 11.341256,10.44319 11.778692,1.95158 21.524343,-8.23747 18.985115,-19.84888 -0.760749,-3.4788 -0.724706,-4.59785 0.166407,-5.16684 2.572099,-1.64231 4.517501,-0.31141 5.976534,4.08878 1.733455,5.22777 6.304956,12.14585 12.568726,19.02033 6.49641,7.1298 4.87895,9.43117 -4.40106,6.262 -3.897408,-1.33099 -8.997929,-1.01373 -8.997929,0.55967 0,0.44233 1.426751,0.80423 3.17053,0.80423 1.886849,0 2.947619,0.35372 2.619959,0.87365 -0.30282,0.48051 -1.916395,0.87365 -3.585727,0.87365 -3.231321,0 -9.331523,2.42875 -9.331523,3.71528 0,0.94174 3.368714,-0.0216 5.765999,-1.64884 0.966476,-0.65603 2.369548,-1.18609 3.11796,-1.1779 0.748418,0.008 -0.643643,1.18093 -3.09346,2.60605 -2.449827,1.42512 -3.85291,2.58391 -3.117971,2.57508 0.734949,-0.009 2.338469,-0.5779 3.563388,-1.26462 1.224903,-0.6867 2.828439,-1.24471 3.563378,-1.24003 0.734944,0.005 -0.467691,0.95584 -2.672533,2.11369 -2.641626,1.3872 -3.401167,2.10806 -2.227111,2.11367 0.979923,0.005 2.783891,-0.55333 4.008799,-1.24003 1.224914,-0.68671 4.287961,-1.26249 6.806771,-1.27951 2.59602,-0.0175 6.26171,-0.77948 8.46303,-1.75907 2.13586,-0.95045 4.82288,-1.73673 5.97117,-1.7473 1.32851,-0.0122 2.25725,-0.65464 2.55372,-1.76647 0.25626,-0.96101 0.92027,-1.75332 1.47558,-1.76068 0.55531,-0.007 0.40834,-0.39447 -0.32661,-0.86026 -1.18779,-0.7528 -1.18779,-0.84874 0,-0.86355 0.73495,-0.009 0.10168,-0.75495 -1.40725,-1.65734 -2.95404,-1.76658 -3.88615,-3.58576 -6.26756,-12.23217 -1.79593,-6.52069 -6.42111,-11.99332 -10.87429,-12.86675 -1.54125,-0.30231 -2.58466,-0.89493 -2.31872,-1.31692 0.645,-1.02348 2.8674,-0.97418 4.20208,0.0932 0.59177,0.47324 2.3066,1.8246 3.81072,3.00299 2.96323,2.3215 4.84032,6.00543 7.0288,13.79466 1.65464,5.88918 5.56042,9.44347 10.66069,9.70124 1.74633,0.0883 3.17694,0.44261 3.17914,0.78742 0.006,0.92329 -8.78992,7.20225 -12.91326,9.21825 -3.08605,1.50886 -5.64585,2.1889 -15.14436,4.02324 -3.326249,0.64235 -6.22254,0.48814 -12.954457,-0.68977 z m 28.295367,-9.28187 c 0.26133,-0.98009 0.6742,-1.58675 0.91749,-1.34816 0.48195,0.47264 -0.36934,3.13009 -1.00267,3.13009 -0.2145,0 -0.17616,-0.80188 0.0852,-1.78193 z m 16.75845,-4.63535 c 0.34028,-3.04 2.3231,-5.69595 4.15151,-5.56088 2.06125,0.15227 2.06113,0.15289 -0.83978,4.17551 -2.82864,3.9224 -3.6334,4.25906 -3.31173,1.38537 z m -33.43563,-15.03864 c 0,-0.21188 0.40089,-0.38525 0.89085,-0.38525 0.48996,0 0.89084,0.41634 0.89084,0.92521 0,0.50886 -0.40088,0.68223 -0.89084,0.38526 -0.48996,-0.29696 -0.89085,-0.71332 -0.89085,-0.92522 z m 27.66732,-16.54386 c -1.60745,-3.95295 -5.16304,-8.1404 -8.2348,-9.69821 -2.54982,-1.29309 -2.99237,-1.27738 -6.17963,0.21933 -1.88823,0.88671 -3.43774,1.80943 -3.44337,2.05051 -0.006,0.24108 1.7378,1.34775 3.87428,2.45926 4.8634,2.53023 9.79468,7.42788 12.04801,11.96587 0.95125,1.91574 1.58135,3.62987 1.40024,3.80921 -0.18111,0.17933 -2.22314,-1.30878 -4.53784,-3.30694 -2.31469,-1.99813 -6.6549,-4.77797 -9.64489,-6.17742 -3.85389,-1.80377 -5.47608,-3.06139 -5.57279,-4.32029 -0.075,-0.97672 0.24045,-2.00424 0.70103,-2.2834 0.46059,-0.27916 0.59229,-1.46546 0.29267,-2.63619 -0.29963,-1.17075 -0.31019,-2.72812 -0.0235,-3.46084 0.42878,-1.0958 0.83221,-1.14179 2.27336,-0.25914 1.45693,0.89229 2.06061,0.79922 3.5836,-0.55245 1.00734,-0.89403 1.83152,-2.54743 1.83152,-3.67423 0,-1.12677 0.43274,-2.0487 0.96162,-2.0487 0.61825,0 0.74014,1.01387 0.34136,2.83936 -0.34115,1.56164 -0.31062,2.54883 0.0679,2.19375 0.37847,-0.35506 1.01433,-2.12419 1.41301,-3.93141 0.63655,-2.8854 0.67467,-2.75348 0.31282,1.08241 -0.28653,3.03738 -0.14666,3.96898 0.4591,3.05777 0.47915,-0.72077 0.88951,-2.68647 0.91191,-4.36823 0.0338,-2.53797 0.19774,-2.79322 0.96437,-1.50152 0.64737,1.09076 0.61371,2.47721 -0.11259,4.63537 -0.98676,2.93221 -0.89052,3.21791 2.01672,5.98685 4.38336,4.17491 6.33912,8.73322 6.58231,15.34142 l 0.20899,5.6787 -0.71558,-5.24189 c -0.39355,-2.88302 -1.19446,-6.41956 -1.77979,-7.85895 z m -23.17226,-0.51551 c 0.5469,-1.00216 1.21186,-1.60883 1.47767,-1.34815 0.73429,0.72011 -0.44191,3.17027 -1.52189,3.17027 -0.65884,0 -0.64528,-0.55866 0.0442,-1.82212 z m 33.95233,-15.56807 c -4.538,-6.8681 -10.30673,-11.00054 -20.08987,-14.391353 -3.20794,-1.111865 -0.64745,-1.587207 2.74036,-0.508718 4.8809,1.553789 11.98456,6.367321 15.05981,10.204721 2.94712,3.67752 5.71203,7.79837 5.71203,8.51326 0,1.06847 -0.73702,0.24624 -3.42233,-3.81791 z m -47.508411,-9.39146 c -0.896022,-0.79524 -1.629126,-2.5741 -1.629126,-3.953035 0,-1.870419 -0.565601,-2.718042 -2.227111,-3.337555 -2.319237,-0.864755 -2.511406,-1.345555 -2.269716,-5.678717 0.157462,-2.822846 2.847145,-5.678699 5.348302,-5.678699 0.84971,0 2.270704,0.786499 3.157781,1.747771 l 1.612825,1.747755 1.248282,-1.747755 c 1.417168,-1.984224 5.405474,-2.330603 7.550144,-0.655711 1.82549,1.425635 2.67902,7.104469 1.32356,8.805996 -0.57482,0.721573 -1.84688,1.450705 -2.82681,1.620283 -1.31347,0.227299 -1.71354,0.882012 -1.52238,2.491381 0.56383,4.746876 -6.085171,7.904866 -9.765751,4.638286 z M 101.80027,92.210932 c 1.3225,-1.56275 0.48415,-3.096034 -1.6928,-3.096034 -1.963291,0 -3.99393,2.19427 -3.198583,3.456311 0.834353,1.323962 3.641003,1.117231 4.891383,-0.360277 z m -8.511762,0.527263 c 0.258206,-0.409723 -0.04931,-1.440751 -0.683437,-2.29119 -1.306867,-1.752749 -5.025941,-1.147885 -5.025941,0.817423 0,1.865289 4.698338,3.078076 5.709378,1.473767 z m 2.756364,-2.753961 c 1.060997,-1.683593 4.335208,-2.469792 6.233198,-1.496715 1.59373,0.817074 1.65271,0.760094 0.55906,-0.540061 -1.62797,-1.935373 -3.93774,-1.837091 -5.86324,0.249482 -1.556692,1.686904 -1.59493,1.686013 -4.051979,-0.09549 -1.945617,-1.410691 -2.837062,-1.595262 -4.134335,-0.855912 -1.457992,0.830939 -1.345657,0.945726 0.948517,0.969132 1.431318,0.01461 3.2957,0.6419 4.143076,1.393948 1.094372,0.971279 1.721741,1.080073 2.165703,0.375612 z M 66.198839,93.53468 c 0,-0.45214 0.400875,-1.065037 0.890856,-1.362023 0.489959,-0.296969 0.890844,0.07297 0.890844,0.822092 0,0.74911 -0.400885,1.362023 -0.890844,1.362023 -0.489981,0 -0.890856,-0.369946 -0.890856,-0.822092 z m 15.496994,-5.05682 c 0.905563,-0.88807 1.652736,0.448948 0.909749,1.627939 -0.561261,0.890608 -0.771094,0.8913 -1.07284,0.0038 -0.206318,-0.607005 -0.132918,-1.341164 0.163091,-1.631459 z m 26.372737,-0.236609 c 0,-0.480515 0.40088,-0.873657 0.89084,-0.873657 0.48997,0 0.89085,0.393142 0.89085,0.873657 0,0.480499 -0.40088,0.873647 -0.89085,0.873647 -0.48996,0 -0.89084,-0.393148 -0.89084,-0.873647 z M 95.596735,76.780712 c 0,-0.48051 0.400875,-0.63068 0.890844,-0.333705 0.489965,0.296964 0.890845,0.93309 0.890845,1.413589 0,0.480505 -0.40088,0.63068 -0.890845,0.33371 -0.489969,-0.296975 -0.890844,-0.93309 -0.890844,-1.413594 z m -2.786167,0.321524 c -1.108098,-1.385655 -1.076595,-1.416551 0.336345,-0.329852 0.857442,0.659483 1.558978,1.347481 1.558978,1.528902 0,0.719039 -0.731558,0.256231 -1.895323,-1.19905 z"
       style="fill:#000000" />
  </g>
</svg>
